<svg width="53" height="53" viewBox="0 0 53 53" fill="none" xmlns="http://www.w3.org/2000/svg">
<path fill-rule="evenodd" clip-rule="evenodd" d="M3.05461 0H50.3748C51.8246 0 52.9998 1.17171 52.9998 2.62495V49.9452C52.9998 51.3949 51.8281 52.5701 50.3748 52.5701H3.05461C1.60489 52.5701 0.429688 51.3984 0.429688 49.9452V2.62495C0.429688 1.17523 1.60137 0 3.05461 0Z" fill="#AE1E78"/>
<path fill-rule="evenodd" clip-rule="evenodd" d="M22.7072 41.6325C22.7072 41.2385 22.6933 40.1959 22.6854 38.8112C18.1861 39.8131 17.2368 36.5876 17.2368 36.5876C16.501 34.6714 15.4405 34.1613 15.4405 34.1613C13.9718 33.132 15.5517 33.1533 15.5517 33.1533C17.1752 33.2704 18.0292 34.8628 18.0292 34.8628C19.4721 37.397 21.8145 36.6659 22.737 36.2414C22.884 35.1692 23.302 34.4382 23.7638 34.0238C20.1721 33.6054 16.3957 32.182 16.3957 25.8267C16.3957 24.0164 17.0263 22.536 18.061 21.3763C17.8952 20.9568 17.3391 19.2708 18.2199 16.987C18.2199 16.987 19.5783 16.5411 22.6675 18.6874C23.9574 18.3198 25.3416 18.1345 26.7179 18.1284C28.0912 18.1345 29.4745 18.3198 30.7674 18.6874C33.8546 16.5411 35.211 16.987 35.211 16.987C36.0938 19.2697 35.5387 20.9558 35.3719 21.3763C36.4086 22.536 37.0342 24.0164 37.0342 25.8267C37.0342 32.1983 33.2518 33.6003 29.6482 34.0106C30.2301 34.5228 30.7465 35.5348 30.7465 37.0824C30.7465 39.2999 30.7256 41.0889 30.7256 41.6325C30.7256 42.0765 31.0176 42.5916 31.8388 42.4297C38.2605 40.2325 42.8909 34.0198 42.8909 26.6952C42.8909 17.5348 35.648 10.1094 26.715 10.1094C17.783 10.1094 10.54 17.5348 10.54 26.6952C10.541 34.0218 15.1753 40.2387 21.603 42.4318C22.4113 42.5835 22.7072 42.0714 22.7072 41.6325Z" fill="#0C0C0C"/>
</svg>
