<svg width="53" height="53" viewBox="0 0 53 53" fill="none" xmlns="http://www.w3.org/2000/svg">
<g clip-path="url(#clip0_558_457)">
<path d="M38.048 17.3841C37.8062 16.7287 37.4204 16.1356 36.9191 15.6487C36.4322 15.1474 35.8394 14.7615 35.1837 14.5197C34.6519 14.3132 33.853 14.0673 32.3815 14.0003C30.7897 13.9278 30.3124 13.9121 26.2826 13.9121C22.2524 13.9121 21.7751 13.9273 20.1837 13.9999C18.7122 14.0673 17.9129 14.3132 17.3815 14.5197C16.7258 14.7615 16.1326 15.1474 15.6462 15.6487C15.1448 16.1356 14.759 16.7283 14.5168 17.3841C14.3102 17.9159 14.0644 18.7152 13.9974 20.1867C13.9248 21.7781 13.9092 22.2553 13.9092 26.2855C13.9092 30.3154 13.9248 30.7926 13.9974 32.3844C14.0644 33.8559 14.3102 34.6548 14.5168 35.1866C14.759 35.8424 15.1444 36.4351 15.6458 36.922C16.1326 37.4233 16.7254 37.8091 17.3811 38.051C17.9129 38.2579 18.7122 38.5038 20.1837 38.5707C21.7751 38.6433 22.252 38.6586 26.2822 38.6586C30.3128 38.6586 30.7901 38.6433 32.3811 38.5707C33.8526 38.5038 34.6519 38.2579 35.1837 38.051C36.5 37.5432 37.5403 36.5029 38.048 35.1866C38.2546 34.6548 38.5004 33.8559 38.5678 32.3844C38.6404 30.7926 38.6557 30.3154 38.6557 26.2855C38.6557 22.2553 38.6404 21.7781 38.5678 20.1867C38.5008 18.7152 38.255 17.9159 38.048 17.3841ZM26.2826 34.0352C22.0021 34.0352 18.5322 30.5656 18.5322 26.2851C18.5322 22.0047 22.0021 18.5351 26.2826 18.5351C30.5627 18.5351 34.0327 22.0047 34.0327 26.2851C34.0327 30.5656 30.5627 34.0352 26.2826 34.0352ZM34.3391 20.0399C33.3388 20.0399 32.5279 19.2289 32.5279 18.2287C32.5279 17.2285 33.3388 16.4175 34.3391 16.4175C35.3393 16.4175 36.1502 17.2285 36.1502 18.2287C36.1498 19.2289 35.3393 20.0399 34.3391 20.0399Z" fill="#AE1E78"/>
<path d="M31.3147 26.2853C31.3147 29.0638 29.0623 31.3161 26.2838 31.3161C23.5053 31.3161 21.2529 29.0638 21.2529 26.2853C21.2529 23.5067 23.5053 21.2544 26.2838 21.2544C29.0623 21.2544 31.3147 23.5067 31.3147 26.2853Z" fill="#AE1E78"/>
<path d="M48.7762 0.00146484H3.7912C1.69728 0.00146484 0 1.69874 0 3.79266V48.7777C0 50.8716 1.69728 52.5689 3.7912 52.5689H48.7762C50.8702 52.5689 52.5674 50.8716 52.5674 48.7777V3.79266C52.5674 1.69874 50.8702 0.00146484 48.7762 0.00146484ZM41.2853 32.5076C41.2123 34.1142 40.9568 35.2111 40.5838 36.1713C39.7998 38.1986 38.1971 39.8012 36.1698 40.5853C35.2101 40.9583 34.1128 41.2134 32.5065 41.2868C30.8971 41.3601 30.3829 41.3778 26.2841 41.3778C22.1849 41.3778 21.6712 41.3601 20.0613 41.2868C18.4551 41.2134 17.3578 40.9583 16.398 40.5853C15.3906 40.2063 14.4786 39.6123 13.7246 38.8443C12.957 38.0907 12.363 37.1783 11.984 36.1713C11.611 35.2115 11.3555 34.1142 11.2826 32.508C11.2084 30.8982 11.1911 30.384 11.1911 26.2852C11.1911 22.1864 11.2084 21.6722 11.2822 20.0628C11.3551 18.4561 11.6102 17.3592 11.9832 16.3991C12.3622 15.3921 12.9566 14.4797 13.7246 13.7261C14.4782 12.958 15.3906 12.3641 16.3976 11.9851C17.3578 11.6121 18.4547 11.357 20.0613 11.2836C21.6708 11.2102 22.1849 11.1926 26.2837 11.1926C30.3825 11.1926 30.8967 11.2102 32.5061 11.284C34.1128 11.357 35.2097 11.6121 36.1698 11.9847C37.1769 12.3637 38.0893 12.958 38.8432 13.7261C39.6109 14.4801 40.2052 15.3921 40.5838 16.3991C40.9572 17.3592 41.2123 18.4561 41.2857 20.0628C41.3591 21.6722 41.3763 22.1864 41.3763 26.2852C41.3763 30.384 41.3591 30.8982 41.2853 32.5076Z" fill="#AE1E78"/>
</g>
<defs>
<clipPath id="clip0_558_457">
<rect width="52.5674" height="52.5674" fill="white" transform="translate(0 0.00146484)"/>
</clipPath>
</defs>
</svg>
