<svg width="53" height="53" viewBox="0 0 53 53" fill="none" xmlns="http://www.w3.org/2000/svg">
<path fill-rule="evenodd" clip-rule="evenodd" d="M4 0C1.79086 0 0 1.79086 0 4V48.57C0 50.7791 1.79086 52.57 4 52.57H48.57C50.7791 52.57 52.57 50.7791 52.57 48.57V4C52.57 1.79086 50.7791 0 48.57 0H4ZM44.4608 11.6324L38.2844 41.3415C38.1389 42.0429 37.3164 42.3608 36.736 41.9391L28.3046 35.8177C27.7928 35.446 27.0948 35.4658 26.6048 35.8653L21.9301 39.6759C21.3877 40.1196 20.5701 39.8723 20.3624 39.2042L17.6991 30.6389C17.3316 29.457 16.4377 28.5118 15.2781 28.079L8.73032 25.6353C7.87845 25.3162 7.87117 24.1136 8.72061 23.7864L43.1374 10.5093C43.8671 10.2271 44.6198 10.8663 44.4608 11.6324Z" fill="#AE1E78"/>
<path fill-rule="evenodd" clip-rule="evenodd" d="M41.7274 20.0554L22.3978 31.9603C21.657 32.4175 21.3083 33.3122 21.5473 34.1498L23.6372 41.4932C23.7858 42.0135 24.5407 41.9603 24.6131 41.4228L25.1562 37.3958C25.2588 36.6376 25.6203 35.9387 26.1812 35.4169L42.1335 20.5884C42.4322 20.3118 42.0746 19.8421 41.7274 20.0554Z" fill="#AE1E78"/>
</svg>
