<svg width="53" height="53" viewBox="0 0 53 53" fill="none" xmlns="http://www.w3.org/2000/svg">
<path d="M48.9911 0.00146484H4.00604C1.91212 0.00146484 0.214844 1.69874 0.214844 3.79266V48.7777C0.214844 50.8716 1.91212 52.5689 4.00604 52.5689H48.9911C51.085 52.5689 52.7823 50.8716 52.7823 48.7777V3.79266C52.7823 1.69874 51.085 0.00146484 48.9911 0.00146484ZM38.4994 20.4947C38.511 20.7534 38.5167 21.0133 38.5167 21.2744C38.5167 29.2462 32.4487 38.4388 21.3518 38.4392C17.9448 38.4392 14.7744 37.4406 12.1046 35.7293C12.5766 35.785 13.0571 35.8127 13.5436 35.8127C16.3703 35.8127 18.9715 34.8486 21.0366 33.2303C18.3956 33.1814 16.1689 31.4372 15.4005 29.0401C15.7683 29.1106 16.1465 29.1491 16.5343 29.1491C17.0849 29.1491 17.6183 29.0749 18.1253 28.9366C15.3648 28.3839 13.2853 25.9443 13.2853 23.023C13.2853 22.9957 13.2853 22.9712 13.2861 22.946C14.0991 23.398 15.0287 23.6699 16.0185 23.7004C14.3987 22.6195 13.3338 20.7718 13.3338 18.6787C13.3338 17.5734 13.6326 16.5379 14.1508 15.6463C17.1258 19.2968 21.572 21.6975 26.586 21.9498C26.4825 21.5078 26.4292 21.0474 26.4292 20.5741C26.4292 17.2437 29.1311 14.5418 32.4627 14.5418C34.1981 14.5418 35.7654 15.2753 36.8663 16.448C38.2407 16.1769 39.5313 15.6748 40.6972 14.9838C40.246 16.3919 39.2899 17.5734 38.0442 18.3206C39.2646 18.1746 40.4277 17.8509 41.5086 17.3705C40.7012 18.5805 39.6773 19.6433 38.4994 20.4947Z" fill="#AE1E78"/>
</svg>
