<svg width="53" height="53" viewBox="0 0 53 53" fill="none" xmlns="http://www.w3.org/2000/svg">
<path d="M48.7762 0H3.7912C1.69728 0 0 1.69728 0 3.7912V48.7762C0 50.8702 1.69728 52.5674 3.7912 52.5674H48.7762C50.8702 52.5674 52.5674 50.8702 52.5674 48.7762V3.7912C52.5674 1.69728 50.8702 0 48.7762 0ZM18.646 39.7336H12.2447V20.4752H18.646V39.7336ZM15.4455 17.8455H15.4038C13.2558 17.8455 11.8665 16.3668 11.8665 14.5187C11.8665 12.6289 13.2983 11.1911 15.488 11.1911C17.6778 11.1911 19.0254 12.6289 19.0671 14.5187C19.0671 16.3668 17.6778 17.8455 15.4455 17.8455ZM41.7277 39.7336H35.3272V29.4308C35.3272 26.8416 34.4003 25.0757 32.0842 25.0757C30.316 25.0757 29.2628 26.2669 28.8 27.4167C28.6307 27.8282 28.5894 28.4033 28.5894 28.9788V39.7336H22.1885C22.1885 39.7336 22.2723 22.282 22.1885 20.4752H28.5894V23.202C29.44 21.8897 30.9621 20.0232 34.3582 20.0232C38.5697 20.0232 41.7277 22.7757 41.7277 28.6909V39.7336Z" fill="#F6EFEF"/>
</svg>
