<svg width="46" height="70" viewBox="0 0 46 70" fill="none" xmlns="http://www.w3.org/2000/svg">
<path d="M23.1025 34.8749C23.1025 28.4644 28.1716 23.2676 34.4245 23.2676C40.6774 23.2676 45.7464 28.4645 45.7464 34.8749C45.7464 41.2856 40.6773 46.4823 34.4245 46.4823C28.1714 46.4823 23.1025 41.2855 23.1025 34.8749Z" fill="#00BCFF"/>
<path d="M0.458984 58.09C0.458984 51.6794 5.52801 46.4826 11.7809 46.4826L17.8145 43.2168L23.1029 46.4826V58.09C23.1029 64.5007 18.0338 69.6973 11.7809 69.6973C5.52801 69.6973 0.458984 64.5005 0.458984 58.09Z" fill="#00CF7F"/>
<path d="M23.1022 0.0527344L16.9414 11.0258L23.1022 23.2675H34.2654C40.5184 23.2675 45.5873 18.0707 45.5873 11.6601C45.5873 5.24955 40.5183 0.0527344 34.2654 0.0527344H23.1022Z" fill="#FF7361"/>
<path d="M0.299805 11.6601C0.299805 18.0707 5.36883 23.2675 11.6217 23.2675L17.6278 25.6457L23.1025 23.2675V0.0527344H11.6216C5.36883 0.0527344 0.299805 5.24955 0.299805 11.6601Z" fill="#FF4D12"/>
<path d="M0.458984 34.8751C0.458984 41.2858 5.52801 46.4825 11.7809 46.4825H23.1029V23.2676H11.7809C5.52801 23.2676 0.458984 28.4645 0.458984 34.8751Z" fill="#B659FF"/>
</svg>
