<svg width="70" height="70" viewBox="0 0 70 70" fill="none" xmlns="http://www.w3.org/2000/svg">
<path d="M68.5879 31.7759C68.5851 31.7759 68.5851 31.7745 68.5851 31.7745L38.1185 1.28802C36.4748 -0.359501 33.5985 -0.358084 31.9605 1.28661L1.48822 31.7759C0.669235 32.5997 0.21582 33.6928 0.21582 34.854C0.21582 36.0166 0.669235 37.111 1.49105 37.9333L31.9577 68.4198C32.7795 69.2435 33.8734 69.6973 35.0381 69.6973C36.2028 69.6973 37.2966 69.2435 38.1156 68.4212L68.5851 37.9333C69.4069 37.111 69.8603 36.0166 69.8603 34.854C69.8603 33.6928 69.4069 32.5997 68.5879 31.7759Z" fill="#EF473B"/>
<path opacity="0.1" d="M68.9345 36.8766L38.1477 67.6821C37.3202 68.5129 36.2148 68.9715 35.0381 68.9715C33.8613 68.9715 32.756 68.5129 31.9256 67.6807L1.14162 36.8766C0.781897 36.5166 0.507015 36.0979 0.293945 35.6514C0.452286 36.5102 0.860714 37.3023 1.49107 37.933L31.9577 68.4194C32.7795 69.2432 33.8734 69.697 35.0381 69.697C36.2028 69.697 37.2966 69.2432 38.1156 68.4208L68.5851 37.933C69.2154 37.3023 69.6241 36.5102 69.7824 35.6514C69.5693 36.0979 69.2943 36.5166 68.9345 36.8766Z" fill="#010101"/>
<path d="M49.5487 29.0713C48.4608 29.0713 47.4536 29.3907 46.5824 29.9137L40.0008 23.3321C40.5236 22.461 40.8431 21.4538 40.8431 20.3658C40.8431 17.1649 38.2388 14.5621 35.0394 14.5621C33.9661 14.5621 32.9725 14.8748 32.1091 15.3849L24.9887 8.26367L22.9375 10.3159L30.0577 17.437C29.5483 18.2999 29.2357 19.293 29.2357 20.3658C29.2357 23.0625 31.0929 25.3145 33.5885 25.9633V43.7868C31.0929 44.4355 29.2357 46.6876 29.2357 49.3843C29.2357 52.5851 31.84 55.188 35.0394 55.188C38.2388 55.188 40.8431 52.5851 40.8431 49.3843C40.8431 46.6876 38.9859 44.4355 36.4903 43.7868V25.9633C37.0033 25.8299 37.4843 25.6272 37.9322 25.367L44.5475 31.9822C44.0507 32.8373 43.745 33.8168 43.745 34.875C43.745 38.0759 46.3493 40.6787 49.5487 40.6787C52.7481 40.6787 55.3524 38.0759 55.3524 34.875C55.3524 31.6742 52.7481 29.0713 49.5487 29.0713Z" fill="white"/>
<path opacity="0.2" d="M1.48822 32.5014L31.9605 2.01207C33.5985 0.367379 36.4748 0.365963 38.1185 2.01349L68.5851 32.5C68.5851 32.5 68.5851 32.5014 68.5879 32.5014C69.3201 33.2378 69.7399 34.1939 69.8249 35.2169C69.835 35.0954 69.8603 34.9773 69.8603 34.854C69.8603 33.6928 69.4069 32.5997 68.5879 31.7759C68.5851 31.7759 68.5851 31.7745 68.5851 31.7745L38.1185 1.28802C36.4748 -0.359501 33.5985 -0.358084 31.9605 1.28661L1.48822 31.7759C0.669235 32.5997 0.21582 33.6928 0.21582 34.854C0.21582 34.9771 0.241148 35.0952 0.251243 35.2165C0.336436 34.1935 0.756199 33.2376 1.48822 32.5014Z" fill="white"/>
<path d="M54.0407 31.2489C54.8465 32.2455 55.3499 33.4963 55.3499 34.8752C55.3499 38.076 52.7456 40.6789 49.5462 40.6789C46.3468 40.6789 43.7425 38.076 43.7425 34.8752C43.7425 33.8169 44.0482 32.8375 44.545 31.9823L37.9297 25.3671C37.4818 25.6273 37.0008 25.8301 36.4878 25.9634V43.7869C38.9834 44.4357 40.8406 46.6877 40.8406 49.3844C40.8406 52.5853 38.2363 55.1881 35.0369 55.1881C33.5527 55.1881 32.211 54.6116 31.1836 53.6915L42.0128 64.5207L64.6557 41.864L54.0407 31.2489ZM39.9983 23.3322L46.5799 29.9138C47.4511 29.3908 48.4583 29.0715 49.5462 29.0715C50.9248 29.0715 52.176 29.575 53.173 30.3812L39.599 16.8071L39.592 16.813C40.3622 17.7979 40.8406 19.0212 40.8406 20.3659C40.8406 21.4539 40.5211 22.4612 39.9983 23.3322Z" fill="url(#paint0_linear_573_94)"/>
<path d="M68.5879 31.7759C68.5851 31.7759 68.5851 31.7745 68.5851 31.7745L38.1185 1.28802C36.4748 -0.359501 33.5985 -0.358084 31.9605 1.28661L1.48822 31.7759C0.669235 32.5997 0.21582 33.6928 0.21582 34.854C0.21582 36.0166 0.669235 37.111 1.49105 37.9333L31.9577 68.4198C32.7795 69.2435 33.8734 69.6973 35.0381 69.6973C36.2028 69.6973 37.2966 69.2435 38.1156 68.4212L68.5851 37.9333C69.4069 37.111 69.8603 36.0166 69.8603 34.854C69.8603 33.6928 69.4069 32.5997 68.5879 31.7759Z" fill="url(#paint1_linear_573_94)"/>
<defs>
<linearGradient id="paint0_linear_573_94" x1="28.2727" y1="28.1312" x2="53.3389" y2="53.1945" gradientUnits="userSpaceOnUse">
<stop stop-color="#010101" stop-opacity="0.1"/>
<stop offset="1" stop-color="#010101" stop-opacity="0"/>
</linearGradient>
<linearGradient id="paint1_linear_573_94" x1="6.06015" y1="21.3524" x2="64.0073" y2="48.3744" gradientUnits="userSpaceOnUse">
<stop stop-color="white" stop-opacity="0.2"/>
<stop offset="1" stop-color="white" stop-opacity="0"/>
</linearGradient>
</defs>
</svg>
