<svg width="70" height="71" viewBox="0 0 70 71" fill="none" xmlns="http://www.w3.org/2000/svg">
<path d="M0.169922 0.59375H69.8144V70.2382H0.169922V0.59375Z" fill="#FFDF00"/>
<path d="M46.9518 55.0037C48.3546 57.2943 50.1798 58.9778 53.4078 58.9778C56.1195 58.9778 57.8517 57.6225 57.8517 55.7498C57.8517 53.5057 56.072 52.7109 53.0872 51.4054L51.4511 50.7033C46.7285 48.6914 43.5912 46.1709 43.5912 40.8425C43.5912 35.9342 47.3311 32.1978 53.1756 32.1978C57.3366 32.1978 60.3281 33.6459 62.4836 37.4377L57.3875 40.7099C56.2654 38.698 55.0549 37.9053 53.1756 37.9053C51.2588 37.9053 50.0438 39.1214 50.0438 40.7099C50.0438 42.6733 51.2599 43.4681 54.0677 44.6841L55.7038 45.3849C61.2643 47.7694 64.4038 50.2003 64.4038 55.6658C64.4038 61.5579 59.7751 64.7859 53.5591 64.7859C47.4812 64.7859 43.5546 61.8896 41.6333 58.0934L46.9518 55.0037ZM23.8331 55.5708C24.8612 57.3949 25.7965 58.937 28.045 58.937C30.1951 58.937 31.5516 58.0957 31.5516 54.8247V32.5715H38.096V54.913C38.096 61.6895 34.123 64.7738 28.3236 64.7738C23.0836 64.7738 20.0492 62.0621 18.5059 58.796L23.8331 55.5708Z" fill="black"/>
</svg>
