<svg width="64" height="71" viewBox="0 0 64 71" fill="none" xmlns="http://www.w3.org/2000/svg">
<path d="M56.5633 35.3778C59.8714 31.7449 62.1793 28.1119 63.0256 24.9428C63.718 22.3147 63.4872 19.9185 62.4101 17.986C59.6406 13.1936 52.5629 12.498 44.3312 14.2758C41.7155 6.23691 37.6381 0.594238 32.0221 0.594238C26.8677 0.594238 22.4826 5.85043 19.713 14.3531C18.7129 14.1212 17.7897 13.9666 16.7896 13.812C9.25032 12.7298 3.78816 14.1985 1.63408 18.0633C0.557032 19.9958 0.326236 22.392 1.01862 25.0201C1.86487 28.2665 4.17282 31.8222 7.48089 35.4551C4.17282 39.0881 1.86487 42.721 1.01862 45.8902C0.326236 48.5183 0.557032 50.9145 1.63408 52.8469C3.40351 55.8615 7.09623 57.4074 12.2507 57.4074C13.6354 57.4074 15.1741 57.2528 16.7896 57.021C17.7128 56.8664 18.7129 56.7118 19.713 56.4799C22.4056 64.9825 26.8677 70.2387 32.0221 70.2387C37.6381 70.2387 41.7155 64.5188 44.2542 56.4799C46.9469 57.0983 49.4856 57.4074 51.8705 57.4074C56.7172 57.4074 60.4868 56.0161 62.4101 52.7696C63.4872 50.9145 63.718 48.5183 63.0256 45.8902C62.1793 42.5664 59.8714 39.0881 56.5633 35.3778ZM5.63453 50.4507C5.17294 49.6005 5.096 48.441 5.48066 47.0497C6.09612 44.8081 7.86554 41.8708 10.712 38.6243C12.6353 40.4021 14.8663 42.18 17.1743 43.8805C17.482 46.7405 17.8667 49.4459 18.4821 51.9967C11.866 53.388 7.0193 52.8469 5.63453 50.4507ZM13.9432 35.3778C14.7894 34.6049 15.7895 33.7546 16.7896 32.9816C16.7896 33.7546 16.7896 34.6049 16.7896 35.3778C16.7896 36.2281 16.7896 37.0011 16.7896 37.774C15.7895 36.9238 14.8663 36.1508 13.9432 35.3778ZM17.1743 26.8752C14.7894 28.5757 12.6353 30.3535 10.712 32.1314C7.78861 28.9622 6.09612 26.0249 5.48066 23.706C5.096 22.3147 5.17294 21.1552 5.63453 20.3049C6.48077 18.759 8.86566 17.986 12.0968 17.986C13.9432 17.986 16.0972 18.2179 18.4821 18.759C17.9436 21.3098 17.482 24.0152 17.1743 26.8752ZM41.7155 23.3968C41.0231 23.0103 40.3307 22.5466 39.6383 22.1601C38.946 21.8509 38.2536 21.4644 37.5612 21.0779C38.7152 20.6141 39.9461 20.2276 41.0231 19.8412C41.2539 21.0779 41.4847 22.2374 41.7155 23.3968ZM25.0213 13.3482C27.0215 8.24663 29.6372 5.23205 32.0221 5.23205C34.407 5.23205 37.0227 8.24663 39.0229 13.2709C39.3306 13.9666 39.5614 14.7396 39.8691 15.5125C37.3304 16.2855 34.7147 17.2904 32.099 18.4498C29.4834 17.2904 26.7908 16.2855 24.252 15.5125C24.4828 14.6623 24.7136 13.9666 25.0213 13.3482ZM23.0211 19.9185C24.1751 20.2276 25.2521 20.6914 26.483 21.0779C25.7906 21.4644 25.0982 21.8509 24.4059 22.2374C23.7135 22.6238 23.0211 23.0876 22.3287 23.4741C22.5595 22.2374 22.7903 21.0779 23.0211 19.9185ZM22.3287 47.3588C23.0211 47.7453 23.7135 48.2091 24.4059 48.5956C25.0982 48.9821 25.7906 49.3686 26.483 49.7551C25.329 50.2188 24.1751 50.6053 23.0211 50.9145C22.7903 49.6778 22.5595 48.5183 22.3287 47.3588ZM39.0229 57.6393C37.0227 62.6636 34.407 65.6782 32.0221 65.6782C29.6372 65.6782 27.0215 62.6636 25.0213 57.562C24.7136 56.8664 24.4828 56.0934 24.252 55.3204C26.7908 54.5475 29.4064 53.5426 32.099 52.3831C34.7147 53.5426 37.3304 54.5475 39.8691 55.3204C39.5614 56.0934 39.3306 56.8664 39.0229 57.6393ZM41.0231 50.8372C39.8691 50.4507 38.7152 50.0642 37.5612 49.6005C38.2536 49.214 38.946 48.8275 39.6383 48.441C40.3307 48.1318 41.0231 47.668 41.7155 47.2816C41.4847 48.5183 41.2539 49.6778 41.0231 50.8372ZM42.4079 41.407C40.8693 42.4891 39.1768 43.5713 37.3304 44.5762C35.561 45.581 33.7146 46.5086 32.0221 47.3588C30.2527 46.5086 28.4832 45.581 26.7138 44.5762C24.8675 43.5713 23.2519 42.4891 21.6363 41.407C21.4825 39.4746 21.4055 37.4648 21.4055 35.4551C21.4055 33.4454 21.4825 31.4357 21.6363 29.5033C23.2519 28.4211 24.8675 27.4163 26.7138 26.3341C28.4832 25.3292 30.2527 24.4017 32.0221 23.5514C33.7915 24.4017 35.561 25.3292 37.3304 26.3341C39.1768 27.339 40.7923 28.4211 42.4079 29.5033C42.5617 31.4357 42.6387 33.4454 42.6387 35.4551C42.6387 37.4648 42.5617 39.3973 42.4079 41.407ZM51.8705 17.986C55.1786 17.986 57.5634 18.8363 58.4866 20.3822C58.9482 21.2325 59.0251 22.392 58.6405 23.7833C58.025 26.0249 56.2556 28.9622 53.4091 32.2087C51.4858 30.4308 49.2548 28.653 46.8699 26.9525C46.5622 24.1698 46.1006 21.3871 45.5621 18.8363C47.87 18.2179 50.0241 17.986 51.8705 17.986ZM47.1777 33.0589C48.1778 33.8319 49.101 34.6049 50.0241 35.3778C49.1779 36.1508 48.1778 37.0011 47.1777 37.774C47.1777 36.9238 47.2546 36.1508 47.2546 35.3778C47.2546 34.6049 47.2546 33.8319 47.1777 33.0589ZM58.4097 50.4507C57.0249 52.8469 52.1782 53.4653 45.4852 52.074C46.1006 49.4459 46.4853 46.7405 46.793 43.9578C49.1779 42.2573 51.332 40.4794 53.3322 38.7016C56.2556 41.8708 57.9481 44.808 58.5635 47.127C58.9482 48.5183 58.8713 49.6778 58.4097 50.4507Z" fill="url(#paint0_linear_573_70)"/>
<path d="M32.0225 28.4209C28.1759 28.4209 25.0986 31.5128 25.0986 35.3776C25.0986 39.2425 28.1759 42.3343 32.0225 42.3343C35.8691 42.3343 38.9463 39.2425 38.9463 35.3776C38.9463 31.5128 35.8691 28.4209 32.0225 28.4209ZM32.0225 37.6965C30.7146 37.6965 29.7145 36.6917 29.7145 35.3776C29.7145 34.0636 30.7146 33.0587 32.0225 33.0587C33.3303 33.0587 34.3304 34.0636 34.3304 35.3776C34.3304 36.6917 33.3303 37.6965 32.0225 37.6965Z" fill="url(#paint1_linear_573_70)"/>
<defs>
<linearGradient id="paint0_linear_573_70" x1="32.0221" y1="1.01937" x2="32.0221" y2="69.8204" gradientUnits="userSpaceOnUse">
<stop stop-color="#00EFD1"/>
<stop offset="1" stop-color="#00ACEA"/>
</linearGradient>
<linearGradient id="paint1_linear_573_70" x1="32.0225" y1="1.01915" x2="32.0225" y2="69.8202" gradientUnits="userSpaceOnUse">
<stop stop-color="#00EFD1"/>
<stop offset="1" stop-color="#00ACEA"/>
</linearGradient>
</defs>
</svg>
