<svg width="70" height="66" viewBox="0 0 70 66" fill="none" xmlns="http://www.w3.org/2000/svg">
<path d="M48.3959 45.8992C50.966 45.635 52.9157 43.4351 52.8271 40.795C52.7386 38.1551 50.5228 36.043 47.8641 36.043H47.687C44.9393 36.1311 42.8124 38.419 42.9011 41.1469C42.9898 42.467 43.5214 43.611 44.319 44.403C41.3058 50.2992 36.6973 54.6111 29.7845 58.2191C25.0873 60.6831 20.213 61.5632 15.3387 60.9473C11.3505 60.4192 8.2486 58.6594 6.29856 55.7551C3.46272 51.4431 3.19693 46.7789 5.58987 42.115C7.27385 38.771 9.93231 36.3069 11.6163 35.0749C11.2618 33.9309 10.73 31.995 10.4642 30.5871C-2.3866 39.8271 -1.0571 52.3232 2.84245 58.2191C5.76697 62.6194 11.705 65.3473 18.2633 65.3473C20.0357 65.3473 21.8081 65.1712 23.5807 64.7314C34.9249 62.5313 43.5216 55.8431 48.3959 45.8992ZM63.9941 34.9871C57.2585 27.155 47.3325 22.843 35.9883 22.843H34.5704C33.7728 21.259 32.0888 20.2029 30.2277 20.2029H30.0503C27.3032 20.2909 25.1763 22.5788 25.2647 25.3071C25.3534 27.9469 27.569 30.059 30.2277 30.059H30.4048C32.3546 29.971 34.0386 28.7389 34.7475 27.0669H36.3428C43.0785 27.0669 49.4594 29.0028 55.2203 32.787C59.6514 35.691 62.842 39.4752 64.6144 44.051C66.121 47.7471 66.0323 51.3551 64.437 54.4352C61.9557 59.0991 57.7903 61.6512 52.2955 61.6512C48.7504 61.6512 45.3827 60.5951 43.61 59.8031C42.6353 60.6831 40.8626 62.091 39.6218 62.9713C43.4329 64.7312 47.3325 65.6993 51.0547 65.6993C59.5627 65.6993 65.8552 61.0351 68.2481 56.3712C70.8182 51.267 70.6408 42.467 63.9941 34.9871ZM18.9722 47.3948C19.0609 50.035 21.2765 52.1468 23.9352 52.1468H24.1126C26.86 52.059 28.9869 49.7708 28.8982 47.0429C28.8098 44.4027 26.5939 42.2909 23.9352 42.2909H23.7581C23.5807 42.2909 23.3147 42.2909 23.1378 42.3787C19.5041 36.3947 17.9975 29.8829 18.5293 22.8427C18.8835 17.5627 20.6562 12.9866 23.7581 9.20247C26.3281 5.94643 31.2911 4.36245 34.6591 4.27466C44.0532 4.09854 48.0412 15.7145 48.3072 20.3787C49.4594 20.6426 51.4091 21.2588 52.7386 21.6988C51.6749 7.4429 42.8124 0.0507812 34.3046 0.0507812C26.3281 0.0507812 18.9722 5.77086 16.0474 14.2189C11.9708 25.4829 14.6295 36.3069 19.5925 44.843C19.1496 45.4589 18.8835 46.4267 18.9722 47.3948Z" fill="#764ABC"/>
</svg>
