<svg width="70" height="70" viewBox="0 0 70 70" fill="none" xmlns="http://www.w3.org/2000/svg">
<path fill-rule="evenodd" clip-rule="evenodd" d="M34.9923 0.0527344C54.224 0.0527344 69.8144 15.6433 69.8144 34.875C69.8144 54.1068 54.224 69.6972 34.9923 69.6972C15.7605 69.6972 0.169922 54.1068 0.169922 34.875C0.169922 15.6433 15.7605 0.0527344 34.9923 0.0527344Z" fill="#CC6699"/>
<path d="M56.8347 14.9575C55.2578 8.77292 45.0032 6.73977 35.2977 10.1878C29.5218 12.2399 23.2689 15.4604 18.7731 19.6658C13.4274 24.6657 12.575 29.0177 12.9263 30.8361C14.1658 37.2525 22.9576 41.4465 26.5716 44.5582V44.5771C25.5059 45.1016 17.706 49.0491 15.8805 53.0848C13.9544 57.3422 16.1871 60.3973 17.6653 60.8085C22.2451 62.0828 26.9447 59.7908 29.4704 56.0237C31.9076 52.3882 31.7048 47.6934 30.6455 45.3583C32.1066 44.9728 33.81 44.8001 35.9747 45.0529C42.0832 45.7664 43.2817 49.5805 43.0525 51.1766C42.8234 52.773 41.5422 53.6506 41.1137 53.9155C40.6854 54.1806 40.5545 54.2724 40.5906 54.4694C40.6425 54.7557 40.8408 54.7451 41.2061 54.6832C41.709 54.5985 44.4138 53.3847 44.5293 50.4383C44.6766 46.6972 41.0915 42.5127 34.7438 42.6219C32.1296 42.6671 30.4857 42.9157 29.2982 43.3575C29.2104 43.2576 29.1211 43.1581 29.0288 43.0595C25.1045 38.8725 17.8497 35.9109 18.1574 30.2822C18.2694 28.2358 18.9806 22.8475 32.0972 16.3115C42.842 10.9575 51.4438 12.4308 52.9303 15.696C55.0538 20.361 48.3331 29.0314 37.1747 30.2822C32.9234 30.7588 30.6849 29.111 30.128 28.4974C29.5417 27.8513 29.4544 27.8222 29.2355 27.9434C28.879 28.1409 29.1049 28.7112 29.2355 29.0512C29.5688 29.9182 30.9358 31.4558 33.2667 32.2207C35.3172 32.8936 40.3086 33.2632 46.3452 30.9283C53.1059 28.3132 58.3854 21.0384 56.8347 14.9575ZM28.0716 46.4748C28.5781 48.3488 28.5226 50.0965 27.9992 51.6791C27.583 52.9379 26.8672 54.0793 25.9738 55.054C23.9506 57.2613 21.1237 58.0958 19.9116 57.3927C18.6026 56.6339 19.2583 53.5218 21.6041 51.0422C24.1277 48.3745 27.7586 46.6593 27.7586 46.6593L27.7531 46.6484C27.8576 46.5921 27.9638 46.5341 28.0716 46.4748Z" fill="white"/>
</svg>
