<svg width="70" height="71" viewBox="0 0 70 71" fill="none" xmlns="http://www.w3.org/2000/svg">
<g clip-path="url(#clip0_573_133)">
<path d="M0.185547 35.4165V0.594238H69.83V70.2387H0.185547" fill="#007ACC"/>
<path d="M15.4551 35.5386V38.3766H24.5089V64.1451H30.9336V38.3766H39.9874V35.5909C39.9874 34.0239 39.9873 32.7528 39.9177 32.718C39.9177 32.6658 34.3984 32.6484 27.6951 32.6484L15.5073 32.7006V35.556L15.4551 35.5386ZM56.1449 32.631C57.9208 33.0488 59.2789 33.8497 60.4977 35.1208C61.1419 35.8172 62.0995 37.036 62.1691 37.3494C62.1691 37.4538 59.157 39.4909 57.3288 40.6227C57.2592 40.6749 56.9806 40.3789 56.702 39.9262C55.7966 38.6378 54.8739 38.0806 53.4287 37.9762C51.3394 37.8369 49.9465 38.9338 49.9465 40.762C49.9465 41.3191 50.051 41.6325 50.2599 42.0852C50.73 43.0428 51.6006 43.6174 54.2993 44.8013C59.2789 46.9429 61.4378 48.3532 62.7437 50.3729C64.2236 52.6363 64.5544 56.1882 63.562 58.8521C62.4477 61.7598 59.7316 63.7272 55.8489 64.3714C54.6301 64.5804 51.8443 64.5456 50.5385 64.3192C47.7527 63.7969 45.0888 62.404 43.4522 60.6106C42.808 59.9142 41.5718 58.0512 41.6414 57.9293L42.303 57.5115L44.9147 55.9967L46.8822 54.8476L47.3348 55.4569C47.9094 56.3623 49.1978 57.5811 49.9465 57.999C52.21 59.1655 55.2395 59.0088 56.7368 57.6507C57.3811 57.0588 57.6596 56.432 57.6596 55.5614C57.6596 54.7605 57.5378 54.3949 57.1373 53.7855C56.5802 53.0194 55.4658 52.3926 52.3318 50.9997C48.7277 49.4675 47.1956 48.4925 45.7678 46.9951C44.9495 46.0898 44.2008 44.6795 43.8526 43.5129C43.5915 42.5031 43.5044 40.0307 43.7482 39.0383C44.4968 35.556 47.1259 33.1185 50.8867 32.422C52.1055 32.1783 54.9783 32.2827 56.1797 32.5961L56.1449 32.631Z" fill="white"/>
</g>
<defs>
<clipPath id="clip0_573_133">
<rect width="69.6445" height="69.6445" fill="white" transform="translate(0.185547 0.594238)"/>
</clipPath>
</defs>
</svg>
