<svg width="71" height="77" viewBox="0 0 71 77" fill="none" xmlns="http://www.w3.org/2000/svg">
<path d="M15.1958 49.1001V47.8902H17.0107V29.1362H15.1958V27.9263H22.2739L30.9249 44.9561V29.1362H29.11V27.9263H34.8572V29.1362H33.0423V49.1001H28.2328L19.128 31.1931V47.8902H20.9429V49.1001H15.1958Z" fill="#F6EFEF"/>
<path d="M29.0222 29.1362V27.9263H35.7071L41.2123 46.045L46.415 27.9263H53.2814V29.1362H51.2245L52.3134 47.8902H54.1283V49.1001H46.0218V47.8902H47.7459L46.8082 32.9173L42.15 49.1001H37.5825L32.652 32.9475L31.8051 47.8902H33.5595V49.1001H28.1753V47.8902H29.9902L31.0489 29.1362H29.0222Z" fill="#F6EFEF"/>
<path d="M4.92493 55.1964V22.2898L35.1011 5.61284L65.9942 22.3201V55.1664L35.1004 71.2628L4.92493 55.1964Z" stroke="url(#paint0_linear_367_554)" stroke-width="9.84986"/>
<path d="M0.5 57.8535V19.6795L35.0781 0.569841L70.4192 19.6826V57.8504L35.0781 76.264L0.5 57.8535Z" stroke="black"/>
<path d="M35.1316 5L5 21.6523V54.9569L35.1316 71L65.9231 54.9569V21.6523L35.1316 5Z" stroke="black" stroke-width="2"/>
<defs>
<linearGradient id="paint0_linear_367_554" x1="2.58451e-06" y1="-8.02859" x2="120.5" y2="119" gradientUnits="userSpaceOnUse">
<stop stop-color="#AE1E78"/>
<stop offset="1" stop-color="#C526ED"/>
</linearGradient>
</defs>
</svg>
