<svg width="34" height="28" viewBox="0 0 34 28" fill="none" xmlns="http://www.w3.org/2000/svg">
<path d="M7.00337 11.2661C7.41819 8.6586 10.6775 5.87336 13.2257 5.8141C13.4035 5.8141 13.5813 5.75484 13.6998 5.63632C13.8183 5.57706 13.9368 5.5178 13.9961 5.34002C14.885 3.68073 14.4109 2.377 12.9294 1.31031C11.2109 0.0658388 8.48488 1.31031 7.12189 2.43626C3.68478 5.28076 0.188418 10.1993 0.366199 14.881C-0.226406 18.0219 -0.107885 21.3996 0.781022 24.1848C1.37363 25.9627 3.09218 26.8516 4.86999 26.9701C6.64781 27.0887 10.322 27.6219 11.922 26.5554C13.522 25.4886 13.6405 23.4145 13.8183 21.6367C13.9961 19.6811 14.5294 16.0069 12.8702 14.4661C11.2109 12.9846 6.47002 14.5846 7.00337 11.2661Z" fill="#F6EFEF"/>
<path d="M26.559 11.266C26.9739 8.65854 30.2331 5.8733 32.7814 5.81404C32.9592 5.81404 33.1369 5.75478 33.2555 5.63626C33.3741 5.577 33.4925 5.51774 33.5519 5.33996C34.4408 3.68067 33.9667 2.37694 32.4852 1.31025C30.7666 0.0657778 28.0406 1.31025 26.6776 2.4362C23.2405 5.2807 19.7441 10.1993 19.9219 14.8809C19.3293 18.0218 19.4478 21.3995 20.3366 24.1848C20.9292 25.9626 22.6478 26.8515 24.4257 26.97C26.2035 27.0886 29.8776 27.6219 31.4777 26.5553C33.0776 25.4885 33.1962 23.4144 33.374 21.6367C33.5518 19.6811 34.0851 16.0068 32.4258 14.4661C30.7665 12.9846 25.9664 14.5846 26.559 11.266Z" fill="#F6EFEF"/>
</svg>
